PathFileType	4	(X/Y/Z)	C:\Users\italobelli\Desktop\GitHub\PTbot_officialCBL\Personal_Results\FLX02_noisy2.trc
DataRate	CameraRate	NumFrames	NumMarkers	Units	OrigDataRate	OrigDataStartFrame	OrigNumFrames
106.125000	106.125000	51	9	m	106.125000	213	850
Frame#	Time		gu		centelbow		EpL		centpxt8		centijc7		ij		ts		aa		ai
			X1	Y1	Z1	X2	Y2	Z2	X3	Y3	Z3	X4	Y4	Z4	X5	Y5	Z5	X6	Y6	Z6	X7	Y7	Z7	X8	Y8	Z8	X9	Y9	Z9

213	1.9976	-0.062271	0.021568	0.1544	0.16885	-0.055213	0.24137	0.16642	-0.027978	0.25844	-0.046816	-0.15316	-0.008669	-0.046816	0.031938	-0.008669	0	0	0	-0.14693	-0.0045814	0.068683	-0.093033	0.041723	0.16446	-0.13533	-0.10627	0.1178
214	2.0071	-0.062359	0.022027	0.15412	0.16893	-0.052433	0.24164	0.16632	-0.025129	0.25864	-0.046816	-0.15316	-0.008669	-0.046816	0.031938	-0.008669	0	0	0	-0.147	-0.0047013	0.068725	-0.092971	0.042062	0.16426	-0.13521	-0.10616	0.11824
215	2.0165	-0.062462	0.02249	0.15383	0.16899	-0.049624	0.24189	0.16619	-0.022252	0.25882	-0.046816	-0.15316	-0.008669	-0.046816	0.031938	-0.008669	0	0	0	-0.14708	-0.0048147	0.068761	-0.092919	0.042409	0.16406	-0.13509	-0.10604	0.11869
216	2.0259	-0.062579	0.022956	0.15352	0.16902	-0.046786	0.24212	0.16603	-0.019347	0.25897	-0.046816	-0.15316	-0.008669	-0.046816	0.031938	-0.008669	0	0	0	-0.14716	-0.0049219	0.068792	-0.092878	0.042763	0.16384	-0.13498	-0.10591	0.11913
217	2.0353	-0.062711	0.023425	0.15321	0.16904	-0.043919	0.24233	0.16584	-0.016415	0.25908	-0.046816	-0.15316	-0.008669	-0.046816	0.031938	-0.008669	0	0	0	-0.14724	-0.005023	0.068819	-0.092847	0.043123	0.16362	-0.13487	-0.10578	0.11957
218	2.0448	-0.062857	0.023898	0.15289	0.16903	-0.041026	0.24252	0.16562	-0.013458	0.25918	-0.046816	-0.15316	-0.008669	-0.046816	0.031938	-0.008669	0	0	0	-0.14732	-0.0051184	0.06884	-0.092826	0.043489	0.16338	-0.13476	-0.10564	0.12
219	2.0542	-0.063016	0.024373	0.15256	0.169	-0.038107	0.2427	0.16537	-0.010476	0.25924	-0.046816	-0.15316	-0.008669	-0.046816	0.031938	-0.008669	0	0	0	-0.14741	-0.0052083	0.068858	-0.092815	0.043861	0.16314	-0.13466	-0.10549	0.12044
220	2.0636	-0.063188	0.024851	0.15223	0.16894	-0.035163	0.24286	0.16509	-0.0074713	0.25928	-0.046816	-0.15316	-0.008669	-0.046816	0.031938	-0.008669	0	0	0	-0.1475	-0.005293	0.06887	-0.092814	0.044239	0.16289	-0.13457	-0.10533	0.12087
221	2.073	-0.063373	0.025331	0.15188	0.16887	-0.032196	0.24301	0.16479	-0.0044448	0.25929	-0.046816	-0.15316	-0.008669	-0.046816	0.031938	-0.008669	0	0	0	-0.14759	-0.0053727	0.068878	-0.092822	0.044623	0.16263	-0.13448	-0.10517	0.12129
222	2.0824	-0.06357	0.025813	0.15153	0.16877	-0.029207	0.24314	0.16446	-0.0013978	0.25928	-0.046816	-0.15316	-0.008669	-0.046816	0.031938	-0.008669	0	0	0	-0.14768	-0.0054477	0.068881	-0.092839	0.045011	0.16236	-0.13439	-0.105	0.12172
223	2.0919	-0.063779	0.026296	0.15116	0.16865	-0.026197	0.24325	0.1641	0.0016684	0.25924	-0.046816	-0.15316	-0.008669	-0.046816	0.031938	-0.008669	0	0	0	-0.14778	-0.0055182	0.068881	-0.092866	0.045405	0.16209	-0.13431	-0.10483	0.12214
224	2.1013	-0.063999	0.026781	0.15079	0.1685	-0.023167	0.24335	0.16371	0.0047524	0.25917	-0.046816	-0.15316	-0.008669	-0.046816	0.031938	-0.008669	0	0	0	-0.14788	-0.0055845	0.068876	-0.092901	0.045803	0.1618	-0.13423	-0.10465	0.12255
225	2.1107	-0.06423	0.027267	0.15042	0.16834	-0.020119	0.24343	0.16329	0.007853	0.25909	-0.046816	-0.15316	-0.008669	-0.046816	0.031938	-0.008669	0	0	0	-0.14798	-0.0056469	0.068867	-0.092945	0.046206	0.16151	-0.13415	-0.10446	0.12297
226	2.1201	-0.064471	0.027754	0.15004	0.16815	-0.017054	0.2435	0.16285	0.010969	0.25898	-0.046816	-0.15316	-0.008669	-0.046816	0.031938	-0.008669	0	0	0	-0.14808	-0.0057055	0.068854	-0.092997	0.046612	0.16121	-0.13408	-0.10427	0.12338
227	2.1296	-0.064722	0.028241	0.14965	0.16794	-0.013973	0.24355	0.16238	0.014099	0.25885	-0.046816	-0.15316	-0.008669	-0.046816	0.031938	-0.008669	0	0	0	-0.14818	-0.0057608	0.068837	-0.093057	0.047023	0.16091	-0.13401	-0.10407	0.12379
228	2.139	-0.064982	0.028729	0.14925	0.1677	-0.010877	0.24358	0.16189	0.017242	0.2587	-0.046816	-0.15316	-0.008669	-0.046816	0.031938	-0.008669	0	0	0	-0.14829	-0.0058128	0.068817	-0.093126	0.047437	0.1606	-0.13394	-0.10386	0.12419
229	2.1484	-0.065251	0.029217	0.14885	0.16745	-0.0077671	0.2436	0.16137	0.020396	0.25852	-0.046816	-0.15316	-0.008669	-0.046816	0.031938	-0.008669	0	0	0	-0.1484	-0.005862	0.068793	-0.093202	0.047854	0.16028	-0.13388	-0.10365	0.1246
230	2.1578	-0.065529	0.029704	0.14844	0.16717	-0.0046449	0.24361	0.16082	0.023561	0.25833	-0.046816	-0.15316	-0.008669	-0.046816	0.031938	-0.008669	0	0	0	-0.14851	-0.0059084	0.068765	-0.093285	0.048275	0.15995	-0.13382	-0.10344	0.125
231	2.1673	-0.065815	0.030192	0.14803	0.16687	-0.0015116	0.24361	0.16025	0.026734	0.25811	-0.046816	-0.15316	-0.008669	-0.046816	0.031938	-0.008669	0	0	0	-0.14862	-0.0059525	0.068734	-0.093376	0.048698	0.15962	-0.13376	-0.10322	0.12539
232	2.1767	-0.066108	0.030678	0.14761	0.16654	0.0016317	0.24358	0.15965	0.029915	0.25788	-0.046816	-0.15316	-0.008669	-0.046816	0.031938	-0.008669	0	0	0	-0.14873	-0.0059944	0.0687	-0.093474	0.049123	0.15929	-0.1337	-0.103	0.12579
233	2.1861	-0.066409	0.031163	0.14719	0.16619	0.0047837	0.24355	0.15903	0.033103	0.25763	-0.046816	-0.15316	-0.008669	-0.046816	0.031938	-0.008669	0	0	0	-0.14884	-0.0060344	0.068662	-0.093579	0.049551	0.15894	-0.13364	-0.10277	0.12618
234	2.1955	-0.066716	0.031647	0.14677	0.16582	0.0079434	0.2435	0.15838	0.036295	0.25736	-0.046816	-0.15316	-0.008669	-0.046816	0.031938	-0.008669	0	0	0	-0.14895	-0.0060728	0.068621	-0.093691	0.049981	0.1586	-0.13359	-0.10254	0.12656
235	2.2049	-0.067029	0.032129	0.14634	0.16543	0.011109	0.24344	0.15771	0.039491	0.25707	-0.046816	-0.15316	-0.008669	-0.046816	0.031938	-0.008669	0	0	0	-0.14906	-0.0061098	0.068577	-0.093809	0.050413	0.15824	-0.13354	-0.1023	0.12695
236	2.2144	-0.067348	0.032609	0.1459	0.16501	0.01428	0.24337	0.15702	0.04269	0.25677	-0.046816	-0.15316	-0.008669	-0.046816	0.031938	-0.008669	0	0	0	-0.14918	-0.0061456	0.06853	-0.093934	0.050846	0.15789	-0.13348	-0.10206	0.12733
237	2.2238	-0.067673	0.033087	0.14546	0.16457	0.017456	0.24328	0.1563	0.045891	0.25644	-0.046816	-0.15316	-0.008669	-0.046816	0.031938	-0.008669	0	0	0	-0.14929	-0.0061806	0.068481	-0.094064	0.05128	0.15752	-0.13343	-0.10182	0.12771
238	2.2332	-0.068002	0.033563	0.14502	0.16411	0.020633	0.24318	0.15556	0.049091	0.25611	-0.046816	-0.15316	-0.008669	-0.046816	0.031938	-0.008669	0	0	0	-0.14941	-0.006215	0.068428	-0.094201	0.051715	0.15716	-0.13338	-0.10157	0.12808
239	2.2426	-0.068336	0.034036	0.14458	0.16363	0.023813	0.24307	0.1548	0.052289	0.25576	-0.046816	-0.15316	-0.008669	-0.046816	0.031938	-0.008669	0	0	0	-0.14952	-0.0062491	0.068374	-0.094343	0.052151	0.15679	-0.13334	-0.10132	0.12845
240	2.2521	-0.068674	0.034506	0.14414	0.16312	0.026992	0.24295	0.15401	0.055486	0.25539	-0.046816	-0.15316	-0.008669	-0.046816	0.031938	-0.008669	0	0	0	-0.14964	-0.006283	0.068316	-0.09449	0.052587	0.15641	-0.13329	-0.10107	0.12882
241	2.2615	-0.069015	0.034973	0.14369	0.16258	0.030171	0.24281	0.1532	0.058678	0.25501	-0.046816	-0.15316	-0.008669	-0.046816	0.031938	-0.008669	0	0	0	-0.14975	-0.0063171	0.068256	-0.094643	0.053024	0.15604	-0.13324	-0.10082	0.12919
242	2.2709	-0.069359	0.035436	0.14324	0.16203	0.033347	0.24266	0.15237	0.061865	0.25462	-0.046816	-0.15316	-0.008669	-0.046816	0.031938	-0.008669	0	0	0	-0.14987	-0.0063517	0.068194	-0.094801	0.05346	0.15565	-0.13319	-0.10056	0.12955
243	2.2803	-0.069706	0.035896	0.14279	0.16145	0.036521	0.24251	0.15151	0.065046	0.25421	-0.046816	-0.15316	-0.008669	-0.046816	0.031938	-0.008669	0	0	0	-0.14998	-0.0063869	0.06813	-0.094963	0.053895	0.15527	-0.13314	-0.1003	0.12991
244	2.2898	-0.070055	0.036351	0.14233	0.16085	0.039689	0.24234	0.15064	0.068219	0.2538	-0.046816	-0.15316	-0.008669	-0.046816	0.031938	-0.008669	0	0	0	-0.1501	-0.006423	0.068063	-0.09513	0.05433	0.15488	-0.1331	-0.10004	0.13026
245	2.2992	-0.070406	0.036802	0.14188	0.16023	0.042852	0.24216	0.14974	0.071383	0.25337	-0.046816	-0.15316	-0.008669	-0.046816	0.031938	-0.008669	0	0	0	-0.15021	-0.0064603	0.067995	-0.095302	0.054764	0.1545	-0.13305	-0.099773	0.13061
246	2.3086	-0.070758	0.037249	0.14142	0.15958	0.046008	0.24196	0.14882	0.074537	0.25293	-0.046816	-0.15316	-0.008669	-0.046816	0.031938	-0.008669	0	0	0	-0.15032	-0.0064991	0.067924	-0.095477	0.055197	0.1541	-0.133	-0.099507	0.13096
247	2.318	-0.07111	0.03769	0.14097	0.15891	0.049156	0.24176	0.14788	0.07768	0.25248	-0.046816	-0.15316	-0.008669	-0.046816	0.031938	-0.008669	0	0	0	-0.15043	-0.0065395	0.067852	-0.095657	0.055629	0.15371	-0.13295	-0.099241	0.13131
248	2.3274	-0.071463	0.038127	0.14051	0.15821	0.052295	0.24155	0.14693	0.080809	0.25202	-0.046816	-0.15316	-0.008669	-0.046816	0.031938	-0.008669	0	0	0	-0.15055	-0.006582	0.067778	-0.09584	0.056058	0.15331	-0.1329	-0.098972	0.13165
249	2.3369	-0.071816	0.038558	0.14006	0.15749	0.055422	0.24133	0.14595	0.083925	0.25155	-0.046816	-0.15316	-0.008669	-0.046816	0.031938	-0.008669	0	0	0	-0.15066	-0.0066266	0.067703	-0.096027	0.056486	0.15292	-0.13285	-0.098703	0.13199
250	2.3463	-0.072168	0.038983	0.1396	0.15675	0.058538	0.2411	0.14495	0.087025	0.25108	-0.046816	-0.15316	-0.008669	-0.046816	0.031938	-0.008669	0	0	0	-0.15076	-0.0066737	0.067626	-0.096217	0.056911	0.15252	-0.13279	-0.098433	0.13232
251	2.3557	-0.072519	0.039402	0.13915	0.15599	0.061641	0.24086	0.14393	0.090108	0.25059	-0.046816	-0.15316	-0.008669	-0.046816	0.031938	-0.008669	0	0	0	-0.15087	-0.0067236	0.067547	-0.09641	0.057334	0.15212	-0.13274	-0.098163	0.13265
252	2.3651	-0.072869	0.039815	0.1387	0.1552	0.06473	0.24061	0.14289	0.093173	0.2501	-0.046816	-0.15316	-0.008669	-0.046816	0.031938	-0.008669	0	0	0	-0.15098	-0.0067764	0.067468	-0.096606	0.057753	0.15172	-0.13268	-0.097892	0.13298
253	2.3746	-0.073217	0.040222	0.13825	0.15439	0.067804	0.24035	0.14183	0.09622	0.2496	-0.046816	-0.15316	-0.008669	-0.046816	0.031938	-0.008669	0	0	0	-0.15108	-0.0068325	0.067387	-0.096805	0.05817	0.15132	-0.13262	-0.097621	0.13331
254	2.384	-0.073562	0.040621	0.1378	0.15355	0.07086	0.24008	0.14076	0.099245	0.2491	-0.046816	-0.15316	-0.008669	-0.046816	0.031938	-0.008669	0	0	0	-0.15118	-0.0068921	0.067305	-0.097006	0.058584	0.15092	-0.13256	-0.097349	0.13363
255	2.3934	-0.073905	0.041014	0.13735	0.15269	0.073899	0.23981	0.13966	0.10225	0.24859	-0.046816	-0.15316	-0.008669	-0.046816	0.031938	-0.008669	0	0	0	-0.15128	-0.0069554	0.067222	-0.09721	0.058993	0.15052	-0.1325	-0.097078	0.13395
256	2.4028	-0.074244	0.041399	0.1369	0.15181	0.076919	0.23952	0.13855	0.10523	0.24808	-0.046816	-0.15316	-0.008669	-0.046816	0.031938	-0.008669	0	0	0	-0.15138	-0.0070228	0.067138	-0.097415	0.059399	0.15012	-0.13243	-0.096808	0.13426
257	2.4122	-0.074579	0.041777	0.13646	0.1509	0.079919	0.23923	0.13742	0.10819	0.24756	-0.046816	-0.15316	-0.008669	-0.046816	0.031938	-0.008669	0	0	0	-0.15148	-0.0070944	0.067054	-0.097623	0.059801	0.14972	-0.13236	-0.096538	0.13457
258	2.4217	-0.07491	0.042147	0.13602	0.14997	0.082897	0.23893	0.13627	0.11112	0.24704	-0.046816	-0.15316	-0.008669	-0.046816	0.031938	-0.008669	0	0	0	-0.15157	-0.0071705	0.066969	-0.097832	0.060198	0.14932	-0.13229	-0.096269	0.13488
259	2.4311	-0.075237	0.042508	0.13558	0.14902	0.085852	0.23862	0.1351	0.11402	0.24651	-0.046816	-0.15316	-0.008669	-0.046816	0.031938	-0.008669	0	0	0	-0.15166	-0.0072515	0.066883	-0.098042	0.060591	0.14892	-0.13221	-0.096	0.13518
260	2.4405	-0.075558	0.042861	0.13515	0.14804	0.088784	0.23831	0.13392	0.1169	0.24599	-0.046816	-0.15316	-0.008669	-0.046816	0.031938	-0.008669	0	0	0	-0.15175	-0.0073375	0.066797	-0.098254	0.060979	0.14852	-0.13213	-0.095734	0.13548
261	2.4499	-0.075874	0.043206	0.13472	0.14703	0.09169	0.23798	0.13272	0.11974	0.24546	-0.046816	-0.15316	-0.008669	-0.046816	0.031938	-0.008669	0	0	0	-0.15184	-0.0074287	0.06671	-0.098466	0.061361	0.14812	-0.13205	-0.095468	0.13578
262	2.4594	-0.076184	0.043541	0.13429	0.14601	0.09457	0.23765	0.13151	0.12256	0.24493	-0.046816	-0.15316	-0.008669	-0.046816	0.031938	-0.008669	0	0	0	-0.15192	-0.0075256	0.066624	-0.09868	0.061738	0.14773	-0.13197	-0.095204	0.13608
263	2.4688	-0.076487	0.043867	0.13387	0.14496	0.097423	0.23732	0.13027	0.12534	0.2444	-0.046816	-0.15316	-0.008669	-0.046816	0.031938	-0.008669	0	0	0	-0.152	-0.0076282	0.066537	-0.098893	0.062109	0.14733	-0.13188	-0.094942	0.13637
